REM DIRINDEX 1\2,1\3
REM DIRNAME folder01,folder02,folder03
TITLE ""
FILE "1581-1600.mp3" MP3
  TRACK 01 AUDIO
    TITLE "0:"
    INDEX 01 00:00:00
  TRACK 02 AUDIO
    TITLE "2:cjc039_2161"
    INDEX 01 00:00:25
  TRACK 03 AUDIO
    TITLE "0:"
    INDEX 01 00:01:32
  TRACK 04 AUDIO
    TITLE "3:cjc039_2162"
    INDEX 01 00:02:10
  TRACK 05 AUDIO
    TITLE "0:"
    INDEX 01 00:05:46
  TRACK 06 AUDIO
    TITLE "2:cjc039_2163"
    INDEX 01 00:07:23
  TRACK 07 AUDIO
    TITLE "0:"
    INDEX 01 00:08:72
  TRACK 08 AUDIO
    TITLE "3:cjc039_2164"
    INDEX 01 00:09:51
  TRACK 09 AUDIO
    TITLE "0:"
    INDEX 01 00:13:53
  TRACK 10 AUDIO
    TITLE "2:cjc039_2165"
    INDEX 01 00:15:30
  TRACK 11 AUDIO
    TITLE "0:"
    INDEX 01 00:16:49
  TRACK 12 AUDIO
    TITLE "3:cjc039_2166"
    INDEX 01 00:17:27
  TRACK 13 AUDIO
    TITLE "0:"
    INDEX 01 00:20:53
  TRACK 14 AUDIO
    TITLE "2:cjc039_2167"
    INDEX 01 00:22:34
  TRACK 15 AUDIO
    TITLE "0:"
    INDEX 01 00:23:53
  TRACK 16 AUDIO
    TITLE "3:cjc039_2168"
    INDEX 01 00:24:29
  TRACK 17 AUDIO
    TITLE "0:"
    INDEX 01 00:29:23
  TRACK 18 AUDIO
    TITLE "2:cjc039_2169"
    INDEX 01 00:31:02
  TRACK 19 AUDIO
    TITLE "0:"
    INDEX 01 00:32:11
  TRACK 20 AUDIO
    TITLE "3:cjc039_2170"
    INDEX 01 00:32:62
  TRACK 21 AUDIO
    TITLE "0:"
    INDEX 01 00:36:33
  TRACK 22 AUDIO
    TITLE "2:cjc039_2171"
    INDEX 01 00:38:12
  TRACK 23 AUDIO
    TITLE "0:"
    INDEX 01 00:39:51
  TRACK 24 AUDIO
    TITLE "3:cjc039_2172"
    INDEX 01 00:40:24
  TRACK 25 AUDIO
    TITLE "0:"
    INDEX 01 00:44:26
  TRACK 26 AUDIO
    TITLE "2:cjc039_2173"
    INDEX 01 00:46:02
  TRACK 27 AUDIO
    TITLE "0:"
    INDEX 01 00:47:17
  TRACK 28 AUDIO
    TITLE "3:cjc039_2174"
    INDEX 01 00:47:74
  TRACK 29 AUDIO
    TITLE "0:"
    INDEX 01 00:51:36
  TRACK 30 AUDIO
    TITLE "2:cjc039_2175"
    INDEX 01 00:53:15
  TRACK 31 AUDIO
    TITLE "0:"
    INDEX 01 00:54:32
  TRACK 32 AUDIO
    TITLE "3:cjc039_2176"
    INDEX 01 00:55:10
  TRACK 33 AUDIO
    TITLE "0:"
    INDEX 01 00:58:50
  TRACK 34 AUDIO
    TITLE "2:cjc039_2177"
    INDEX 01 01:00:29
  TRACK 35 AUDIO
    TITLE "0:"
    INDEX 01 01:01:33
  TRACK 36 AUDIO
    TITLE "3:cjc039_2178"
    INDEX 01 01:02:12
  TRACK 37 AUDIO
    TITLE "0:"
    INDEX 01 01:05:28
  TRACK 38 AUDIO
    TITLE "2:cjc039_2179"
    INDEX 01 01:07:10
  TRACK 39 AUDIO
    TITLE "0:"
    INDEX 01 01:08:44
  TRACK 40 AUDIO
    TITLE "3:cjc039_2180"
    INDEX 01 01:09:22
  TRACK 41 AUDIO
    TITLE "0:"
    INDEX 01 01:12:58
  TRACK 42 AUDIO
    TITLE "2:cjc039_2181"
    INDEX 01 01:14:33
  TRACK 43 AUDIO
    TITLE "0:"
    INDEX 01 01:15:21
  TRACK 44 AUDIO
    TITLE "3:cjc039_2182"
    INDEX 01 01:16:07
  TRACK 45 AUDIO
    TITLE "0:"
    INDEX 01 01:19:62
  TRACK 46 AUDIO
    TITLE "2:cjc039_2183"
    INDEX 01 01:21:43
  TRACK 47 AUDIO
    TITLE "0:"
    INDEX 01 01:22:66
  TRACK 48 AUDIO
    TITLE "3:cjc039_2184"
    INDEX 01 01:23:38
  TRACK 49 AUDIO
    TITLE "0:"
    INDEX 01 01:27:53
  TRACK 50 AUDIO
    TITLE "2:cjc039_2185"
    INDEX 01 01:29:29
  TRACK 51 AUDIO
    TITLE "0:"
    INDEX 01 01:30:32
  TRACK 52 AUDIO
    TITLE "3:cjc039_2186"
    INDEX 01 01:31:14
  TRACK 53 AUDIO
    TITLE "0:"
    INDEX 01 01:34:71
  TRACK 54 AUDIO
    TITLE "2:cjc039_2187"
    INDEX 01 01:36:48
  TRACK 55 AUDIO
    TITLE "0:"
    INDEX 01 01:37:60
  TRACK 56 AUDIO
    TITLE "3:cjc039_2188"
    INDEX 01 01:38:36
  TRACK 57 AUDIO
    TITLE "0:"
    INDEX 01 01:42:04
  TRACK 58 AUDIO
    TITLE "2:cjc039_2189"
    INDEX 01 01:43:54
  TRACK 59 AUDIO
    TITLE "0:"
    INDEX 01 01:44:72
  TRACK 60 AUDIO
    TITLE "3:cjc039_2190"
    INDEX 01 01:45:51
  TRACK 61 AUDIO
    TITLE "0:"
    INDEX 01 01:49:16
  TRACK 62 AUDIO
    TITLE "2:cjc039_2191"
    INDEX 01 01:50:66
  TRACK 63 AUDIO
    TITLE "0:"
    INDEX 01 01:52:02
  TRACK 64 AUDIO
    TITLE "3:cjc039_2192"
    INDEX 01 01:52:59
  TRACK 65 AUDIO
    TITLE "0:"
    INDEX 01 01:57:23
  TRACK 66 AUDIO
    TITLE "2:cjc039_2193"
    INDEX 01 01:58:74
  TRACK 67 AUDIO
    TITLE "0:"
    INDEX 01 01:59:71
  TRACK 68 AUDIO
    TITLE "3:cjc039_2194"
    INDEX 01 02:00:49
  TRACK 69 AUDIO
    TITLE "0:"
    INDEX 01 02:04:33
  TRACK 70 AUDIO
    TITLE "2:cjc039_2195"
    INDEX 01 02:06:08
  TRACK 71 AUDIO
    TITLE "0:"
    INDEX 01 02:07:22
  TRACK 72 AUDIO
    TITLE "3:cjc039_2196"
    INDEX 01 02:08:00
  TRACK 73 AUDIO
    TITLE "0:"
    INDEX 01 02:11:74
  TRACK 74 AUDIO
    TITLE "2:cjc039_2197"
    INDEX 01 02:13:50
  TRACK 75 AUDIO
    TITLE "0:"
    INDEX 01 02:14:65
  TRACK 76 AUDIO
    TITLE "3:cjc039_2198"
    INDEX 01 02:15:37
  TRACK 77 AUDIO
    TITLE "0:"
    INDEX 01 02:19:64
  TRACK 78 AUDIO
    TITLE "2:cjc039_2199"
    INDEX 01 02:21:39
  TRACK 79 AUDIO
    TITLE "0:"
    INDEX 01 02:23:11
  TRACK 80 AUDIO
    TITLE "3:cjc039_2200"
    INDEX 01 02:23:50
  TRACK 81 AUDIO
    TITLE "0:"
    INDEX 01 02:28:08
